<!--?xml version="1.0" ?--><svg height="512px" style="enable-background:new 0 0 512 512;" version="1.1" viewBox="0 0 512 512" width="512px" xml:space="preserve" xmlns="http://www.w3.org/2000/svg" xmlns:xlink="http://www.w3.org/1999/xlink" class=""><g id="lock_padlock_locked_secure_security_close"><g><g><path d="M401.316,210.392H377.16v-87.278C377.16,55.229,321.932,0,254.046,0     S130.931,55.229,130.931,123.114v87.278h-20.247c-11.961,0-21.693,9.731-21.693,21.693v258.222     c0,11.962,9.731,21.693,21.693,21.693h290.632c11.961,0,21.692-9.731,21.692-21.693V232.085     C423.009,220.124,413.277,210.392,401.316,210.392z M316.58,210.392H191.511v-87.278c0-34.481,28.053-62.534,62.535-62.534     s62.534,28.053,62.534,62.534V210.392z" style="fill: rgb(28, 49, 68);" data-original="#520000" class="       "></path></g><path d="M142.657,123.114c0-61.42,49.969-111.389,111.389-111.389c61.421,0,111.39,49.969,111.39,111.389    v87.278h-37.131v-87.278c0-40.947-33.313-74.26-74.259-74.26c-40.947,0-74.26,33.313-74.26,74.26v87.278h-37.129V123.114z" style="fill: rgb(153, 153, 153);" data-original="#9B9C9E" class=" active-path"></path><path d="M411.283,490.307c0,5.497-4.471,9.969-9.967,9.969H110.684c-5.496,0-9.967-4.472-9.967-9.969    V232.085c0-5.496,4.471-9.968,9.967-9.968h290.632c5.496,0,9.967,4.472,9.967,9.968V490.307z" style="fill: rgb(20, 158, 154);" data-original="#FCE90A" class="  "></path><path d="M297.322,325.278c0-24.202-19.689-43.892-43.892-43.892c-24.202,0-43.892,19.689-43.892,43.892    c0,12.363,5.09,23.908,14.084,32.208l-15.396,75.73h90.408l-15.396-75.73C292.232,349.187,297.322,337.642,297.322,325.278z" style="fill: rgb(28, 49, 68);" data-original="#520000" class="       "></path><path d="M284.285,421.491h-61.709l13.95-68.614c-11.091-7.663-15.262-17.63-15.262-27.599    c0-17.737,14.43-32.167,32.167-32.167c17.737,0,32.167,14.43,32.167,32.167c0,9.969-3.693,19.017-15.261,27.599L284.285,421.491z" style="fill: rgb(1, 101, 163);" data-original="#5C719E" class=" "></path></g></g><g id="Capa_1"></g></svg>