<!--?xml version='1.0' encoding='iso-8859-1'?-->

<svg version="1.1" xmlns="http://www.w3.org/2000/svg" viewBox="0 0 512 512" xmlns:xlink="http://www.w3.org/1999/xlink" enable-background="new 0 0 512 512">
  <g>
    <path d="m192,80.016c-61.75,0-112,50.242-112,112 0,8.836 7.156,16 16,16 8.844,0 16-7.164 16-16 0-44.109 35.891-80 80-80 8.844,0 16-7.164 16-16 0-8.836-7.156-16-16-16z" data-original="#000000" class="active-path" style="fill: #149E9A;"></path>
    <path d="m498.094,430.227l-103.959-106.45c9.672-18.155 7.086-41.173-8.197-56.456l-12.651-12.633c6.822-19.675 10.713-40.706 10.713-62.672 0-105.867-86.125-192-192-192s-192,86.132-192,192 86.125,192 192,192c21.962,0 42.987-3.889 62.657-10.708l12.655,12.646c9.063,9.07 21.125,14.063 33.938,14.063 7.983,0 15.568-2.143 22.417-5.791l106.396,103.728c9.359,9.359 21.641,14.031 33.938,14.031s24.578-4.672 33.938-14.031c9.061-9.063 14.061-21.126 14.061-33.938 0-12.828-5-24.875-13.906-33.789zm-306.094-78.211c-88.219,0-160-71.773-160-160 0-88.226 71.781-160 160-160 88.219,0 160,71.773 160,160 0,88.226-71.781,160-160,160zm120.547,11.32c-6.016,6.023-16.531,6.055-22.609-0.016l-4.022-4.015c30.661-17.283 56.091-42.713 73.373-73.373l4.023,4.021c6.234,6.242 6.234,16.391 0,22.633l-50.765,50.75zm162.766,111.992c-6.203,6.203-16.375,6.25-22.781-0.156l-104.65-101.911 25.357-25.354 102.073,104.804c3.031,3.016 4.688,7.023 4.688,11.305 1.13687e-13,4.265-1.672,8.281-4.687,11.312z" data-original="#000000" class="active-path" style="fill: #149E9A;"></path>
  </g>
</svg>
